<?xml version="1.0" encoding="utf-8"?>
<!-- Generator: Adobe Illustrator 20.1.0, SVG Export Plug-In . SVG Version: 6.00 Build 0)  -->
<svg version="1.1" id="レイヤー_1" xmlns="http://www.w3.org/2000/svg" xmlns:xlink="http://www.w3.org/1999/xlink" x="0px"
	 y="0px" viewBox="0 0 341.336 74.225" enable-background="new 0 0 341.336 74.225" xml:space="preserve">
<g>
	<path fill="#DE2726" d="M34.25,0C15.364,0,0,15.364,0,34.25S15.364,68.5,34.25,68.5S68.5,53.136,68.5,34.25S53.136,0,34.25,0z
		 M34.25,64C17.846,64,4.5,50.654,4.5,34.25S17.846,4.5,34.25,4.5S64,17.846,64,34.25S50.654,64,34.25,64z"/>
	<path fill="#DE2726" d="M40.179,32.968c-1.297-1.297-2.012-3.019-2.012-4.853c0-1.919,0.551-2.558,1.248-3.368
		c0.851-0.985,1.908-2.214,1.908-5.451c0-1.89-0.736-3.666-2.072-5.002c-1.336-1.335-3.113-2.07-5.002-2.07
		c-1.889,0-3.666,0.733-5.003,2.07c-1.336,1.336-2.07,3.112-2.07,5.001c0,3.238,1.057,4.467,1.907,5.452
		c0.697,0.809,1.249,1.45,1.247,3.368c0,1.833-0.714,3.556-2.011,4.853c-1.296,1.297-3.019,2.012-4.852,2.01l-5.025,0.002v7.539
		l31.61,0.001l0.002-7.542l-5.026,0.002C43.198,34.979,41.475,34.263,40.179,32.968z"/>
	<rect x="18.444" y="44.319" fill="#DE2726" width="31.611" height="1.979"/>
	<path fill="#DE2726" d="M33.261,55.274c0,0.55,0.445,1,0.989,1s0.99-0.45,0.99-1v-2.214c0-0.55-0.445-1-0.989-1
		s-0.989,0.45-0.989,1L33.261,55.274z"/>
	<path fill="#DE2726" d="M26.048,53.89c-0.212,0.508,0.026,1.094,0.528,1.303s1.086-0.035,1.297-0.543l0.852-2.045
		c0.212-0.508-0.026-1.094-0.528-1.303s-1.086,0.035-1.297,0.543L26.048,53.89z"/>
	<path fill="#DE2726" d="M19.749,50.711c-0.391,0.387-0.397,1.02-0.014,1.406s1.016,0.385,1.407-0.002l1.574-1.558
		c0.391-0.387,0.397-1.02,0.014-1.407s-1.016-0.387-1.406,0L19.749,50.711z"/>
	<path fill="#DE2726" d="M40.303,51.303c-0.501,0.209-0.739,0.795-0.527,1.303l0.851,2.045c0.211,0.508,0.795,0.752,1.298,0.543
		s0.74-0.795,0.528-1.303l-0.853-2.046C41.388,51.338,40.804,51.094,40.303,51.303z"/>
	<path fill="#DE2726" d="M45.773,49.149c-0.383,0.386-0.377,1.02,0.013,1.407l1.572,1.559c0.39,0.387,1.023,0.388,1.407,0.002
		s0.377-1.019-0.013-1.407l-1.572-1.56C46.789,48.763,46.156,48.762,45.773,49.149z"/>
</g>
<g>
	<path fill="#DE2726" d="M137.338,19.681h-3.703V9.81c0-2.209-1.791-4-4-4c-2.209,0-4,1.791-4,4v9.871h-3.704c-2.209,0-4,1.791-4,4
		s1.791,4,4,4h3.704v28.673c0,2.209,1.791,4,4,4c2.209,0,4-1.791,4-4V27.681h3.703c2.209,0,4-1.791,4-4
		S139.547,19.681,137.338,19.681z"/>
	<path fill="#DE2726" d="M337.336,19.681h-3.703V9.81c0-2.209-1.791-4-4-4c-2.209,0-4,1.791-4,4v9.871h-3.704c-2.209,0-4,1.791-4,4
		s1.791,4,4,4h3.704v28.673c0,2.209,1.791,4,4,4c2.209,0,4-1.791,4-4V27.681h3.703c2.209,0,4-1.791,4-4
		S339.545,19.681,337.336,19.681z"/>
	<path fill="#DE2726" d="M181.099,19.383c-2.209,0-4,1.791-4,4v0.455c-3.549-2.879-8.064-4.613-12.98-4.613
		c-11.382,0-20.642,9.26-20.642,20.642c0,11.382,9.26,20.642,20.642,20.642c4.916,0,9.431-1.733,12.98-4.613v0.459
		c0,2.209,1.791,4,4,4s4-1.791,4-4V23.383C185.099,21.174,183.308,19.383,181.099,19.383z M164.119,52.508
		c-6.971,0-12.642-5.671-12.642-12.642s5.671-12.642,12.642-12.642c6.971,0,12.642,5.671,12.642,12.642
		S171.09,52.508,164.119,52.508z"/>
	<path fill="#DE2726" d="M309.49,19.383c-2.209,0-4,1.791-4,4v32.972c0,2.209,1.791,4,4,4c2.209,0,4-1.791,4-4V23.383
		C313.49,21.174,311.699,19.383,309.49,19.383z"/>
	<path fill="#DE2726" d="M277.685,19.224c-4.817,0-9.244,1.672-12.76,4.448c-0.005-2.205-1.793-3.991-3.999-3.991
		c-2.209,0-4,1.791-4,4v46.544c0,2.209,1.791,4,4,4c2.209,0,4-1.791,4-4V56.06c3.516,2.776,7.942,4.448,12.759,4.448
		c11.382,0,20.642-9.26,20.642-20.642C298.327,28.484,289.067,19.224,277.685,19.224z M277.685,52.508
		c-6.971,0-12.642-5.671-12.642-12.642s5.671-12.642,12.642-12.642s12.642,5.671,12.642,12.642S284.656,52.508,277.685,52.508z"/>
	<path fill="#DE2726" d="M233.858,18.486c-4.818,0-9.136,2.14-12.087,5.506c-2.951-3.366-7.269-5.506-12.086-5.506
		c-3.245,0-6.263,0.974-8.793,2.632c-0.721-1.047-1.926-1.736-3.294-1.736c-2.209,0-4,1.791-4,4v32.972c0,2.209,1.791,4,4,4
		c2.209,0,4-1.791,4-4V34.573c0-4.459,3.628-8.087,8.087-8.087c4.458,0,8.086,3.628,8.086,8.087v21.781c0,2.209,1.791,4,4,4
		s4-1.791,4-4V34.573c0-4.459,3.628-8.087,8.087-8.087c4.458,0,8.086,3.628,8.086,8.087v21.781c0,2.209,1.791,4,4,4
		c2.209,0,4-1.791,4-4V34.573C249.944,25.703,242.728,18.486,233.858,18.486z"/>
	<circle fill="#DE2726" cx="309.49" cy="10.274" r="4.8"/>
	<path fill="#DE2726" d="M107.225,30.941c-5.331-2.659-12.877-4.351-14.094-4.614c-3.338-0.992-5.571-3.44-5.571-6.122
		c0-3.561,3.99-6.57,8.713-6.57c3.724,0,7.136,1.888,8.297,4.591c0.872,2.03,3.226,2.968,5.254,2.096
		c2.03-0.872,2.968-3.225,2.096-5.254c-2.424-5.642-8.712-9.433-15.648-9.433c-9.215,0-16.713,6.536-16.713,14.57
		c0,6.327,4.622,11.894,11.5,13.851l0.275,0.068c0.075,0.016,7.562,1.603,12.319,3.976c2.691,1.343,3.65,4.149,3.65,6.327
		c0,4.687-4.949,8.499-11.032,8.499c-4.73,0-8.936-2.338-10.465-5.819c-0.889-2.022-3.249-2.94-5.271-2.053
		c-2.022,0.889-2.941,3.249-2.053,5.271c2.83,6.439,9.813,10.601,17.789,10.601c10.495,0,19.032-7.401,19.032-16.499
		C115.304,38.594,112.208,33.427,107.225,30.941z"/>
</g>
</svg>
