<svg xmlns="http://www.w3.org/2000/svg" viewBox="0 0 411.59 155.35"><defs><style>.cls-1{fill:#c7c3bd;}.cls-2{fill:#515c5d;}</style></defs><title>アセット 1</title><g id="レイヤー_2" data-name="レイヤー 2"><g id="レイヤー_1-2" data-name="レイヤー 1"><path class="cls-1" d="M270.51,22.43c.12-.22,0-.12.13-.15a3.37,3.37,0,1,0-4.6-1.21,3.38,3.38,0,0,0,4.6,1.21,4.78,4.78,0,0,0-1,.06,3.36,3.36,0,1,0-2.42-4.09,3.36,3.36,0,0,0,2.42,4.09c-.62-.39-1.06-.92-.89-.2A3.36,3.36,0,1,0,271,18a3.37,3.37,0,0,0-2.25,4.19,13.47,13.47,0,0,1,.35,2.74c.13,2.54.09,5.92,0,9.36-.24,5.17-.73,10.44-.36,14.27A12.44,12.44,0,0,0,270.79,54a8.4,8.4,0,0,0,5.46,2.4,10.75,10.75,0,0,0,6.57-3.58,38.06,38.06,0,0,0,5-8.88,71.14,71.14,0,0,0,3-10.85c.7-3.51,1.17-6.87,1.49-9.4.19-1.31.34-2.47.44-3.43s.14-1.85.16-2.41,0-1,0-1.3a3.36,3.36,0,1,0-3.36,3.36,3.36,3.36,0,0,0,3.36-3.36c-6.73,0-6.73.49-6.73,1.44v3.63c0,2.1,0,4.83,0,8.05.05,4.07.16,8.84.33,13.91s.39,10.45.63,15.72c.2,4.06.43,8,.63,12,.21,4.14.39,8.27.47,12.15a91.71,91.71,0,0,1-.21,12.73,30.6,30.6,0,0,1-2.35,8.59,3.13,3.13,0,0,1-.6,1c-.08.13.54-.23.85-.35-.16.09.91.27,1.08.3,0,.05.09.15-.18-.35a25,25,0,0,1-1.67-4.78,56,56,0,0,1-1-8.57A3.36,3.36,0,1,0,281,95.57,3.37,3.37,0,0,0,284.15,92a41.4,41.4,0,0,1,0-5.77,3.36,3.36,0,1,0-3.56,3.15,3.37,3.37,0,0,0,3.56-3.15,48,48,0,0,1,1.28-7.51,3.36,3.36,0,1,0-4.06,2.48,3.36,3.36,0,0,0,4.06-2.48c1.52-6.39,4-13.47,6.1-19.69a3.36,3.36,0,1,0-6.37-2.14c-2.07,6.17-4.66,13.52-6.27,20.26a57.65,57.65,0,0,0-1.45,8.6,51.08,51.08,0,0,0,.05,6.66,64.92,64.92,0,0,0,1.19,9.7,34.67,34.67,0,0,0,2.29,6.41,9.34,9.34,0,0,0,2.41,2.8,6.85,6.85,0,0,0,4,.64,7.3,7.3,0,0,0,2.74-1.71,12.39,12.39,0,0,0,1.69-2.68A40.14,40.14,0,0,0,294.72,97,101.72,101.72,0,0,0,295,83.24c-.09-3.92-.27-8.13-.48-12.29s-.43-8-.63-12c-.24-5.24-.45-10.6-.62-15.63s-.29-9.74-.34-13.74c0-3.16,0-5.85,0-8v-5c-6.72.18-6.72.58-6.72,1s-.05,1-.13,1.87-.23,1.87-.42,3.2c-.32,2.54-.75,5.66-1.42,9a61.86,61.86,0,0,1-2.65,9.7,28.14,28.14,0,0,1-3.93,7c-1,1.22-1.17,1.29-1.58,1.18-.44.09,0,.28-.17,0s-.37-.62-.54-1.95c-.32-2.92.16-7.82.41-13.21.11-3.55.15-7.17,0-10a22.59,22.59,0,0,0-.6-4.22,7.88,7.88,0,0,0-3.61-4.37,7.17,7.17,0,0,0-4.35.55,8.81,8.81,0,0,0-2.43,2.4,3.36,3.36,0,1,0,5.7,3.56" transform="translate(-264.3 43.26)"/><path class="cls-1" d="M314.43,18.82c-.66-2.19-1.82-5.48-3.73-7.45a3.36,3.36,0,1,0,.2,4.75,3.36,3.36,0,0,0-.2-4.75A7.27,7.27,0,0,0,308.51,10a3.36,3.36,0,1,0,2.19,4.23A3.36,3.36,0,0,0,308.51,10a6.7,6.7,0,0,0-3.93.57,3.36,3.36,0,1,0,4.65,1,3.35,3.35,0,0,0-4.65-1,15,15,0,0,0-3.95,6.26A93.14,93.14,0,0,0,297.1,28.7c-.59,2.85-1.08,5.76-1.43,8.39a71,71,0,0,0-.61,7.1,16.31,16.31,0,0,0,.35,4.88,8.16,8.16,0,0,0,3.75,4.07,8.25,8.25,0,0,0,6.55-.88,23.72,23.72,0,0,0,4.69-6.66,45.88,45.88,0,0,0,2.08-5.67,35.14,35.14,0,0,0,1.28-6.85,21,21,0,0,0,.1-2.4,8,8,0,0,0-.12-1.18,5.9,5.9,0,0,0-.36-1,5.88,5.88,0,0,0-2.67-1.85c-3.63,2.34-3.88,3.28-4,4.13a9.36,9.36,0,0,0,.55,3.82A3.36,3.36,0,1,0,309,30.14a3.35,3.35,0,0,0-1.75,4.42,7.31,7.31,0,0,0,4.31,3.38,3.37,3.37,0,1,0-2.87-3.79,3.36,3.36,0,0,0,2.87,3.79A10.42,10.42,0,0,0,317.66,36a3.36,3.36,0,1,0-4.68-.85,3.36,3.36,0,0,0,4.68.85,40.63,40.63,0,0,0,7-6.73,3.36,3.36,0,1,0-5.12-4.36,31,31,0,0,1-5.69,5.56c-1.27.91-1.28.89-1.33.78.18.21,1,.8.94.62s-.08-.15,0-.34c.06-.5,0-.33-.27.27-4.29,1.14-5.49.11-5.71-.25a5.2,5.2,0,0,1-.27-.72c0-.08,0-.15,0,0a14.69,14.69,0,0,1-.08,1.66,25.53,25.53,0,0,1-1,5.53,35.4,35.4,0,0,1-1.71,4.7,14.88,14.88,0,0,1-2.86,4.33c-.15.17.44.09.4-.09-.36-.06,0,.34-.09-.09a11.66,11.66,0,0,1,0-2.43,63.8,63.8,0,0,1,.56-6.49c.34-2.51.78-5.2,1.33-7.86a83.73,83.73,0,0,1,3.24-10.92c.92-2.41,1.35-3.17,1.5-3.14a6.18,6.18,0,0,1-1.94.31c-.27-.15-.65-.41-.55-.28.82.55,1.45,2.6,2.08,4.68a3.36,3.36,0,1,0,6.43-1.95" transform="translate(-264.3 43.26)"/><path class="cls-1" d="M327.17-40.12A6.37,6.37,0,0,0,325.38-42a3.35,3.35,0,0,0-4.54,1.41,3.36,3.36,0,0,0,1.41,4.54,3.36,3.36,0,0,0,4.54-1.41A3.36,3.36,0,0,0,325.38-42a6.16,6.16,0,0,0-1.87-.4,3.36,3.36,0,0,0-3.11,3.6A3.36,3.36,0,0,0,324-35.73a3.37,3.37,0,0,0,3.12-3.59,3.37,3.37,0,0,0-3.6-3.12,6.14,6.14,0,0,0-2,.84,3.37,3.37,0,0,0-.33,4.75,3.37,3.37,0,0,0,4.75.33,3.37,3.37,0,0,0,.33-4.75,3.37,3.37,0,0,0-4.75-.33,6,6,0,0,0-1.11,1.79,12.38,12.38,0,0,0-.12,2.75c-.08.73,0,2.11,0,3.77,0,1.29,0,2.88-.08,4.94-.15,2.43-.36,5.79-.46,10.58-.07,4-.09,8.9,0,13.93s.32,10.18.58,15c.06,1.33.12,2.66.19,3.93.07,1.11.14,2.09.22,2.91.26,4,.53,7.48.77,10.11a36.61,36.61,0,0,0,.94,6.48,6,6,0,0,0,1.34,2,6.16,6.16,0,0,0,2.52.72,5.87,5.87,0,0,0,2.07-1,7.26,7.26,0,0,0,1.4-2.78c.22-1.14.4-2.44.56-3.72.34-2.58.61-5.35,1-8,.19-1.48.4-2.89.69-4.39a65.33,65.33,0,0,1,1.75-6.67,7.78,7.78,0,0,1,.52-1.39c.31-.72.11-.4-.37.16a6.05,6.05,0,0,1-1.41.64,5.82,5.82,0,0,1-2-.28,6.35,6.35,0,0,1-1.27-1.18,6,6,0,0,0,.25,1.33c.29,1.34.6,3.2,1,5.1a35.35,35.35,0,0,0,1.69,5.43,10.82,10.82,0,0,0,5.34,5.32,3.36,3.36,0,1,0-2.14-4.25,3.37,3.37,0,0,0,2.14,4.25,9.52,9.52,0,0,0,3.82.26,3.36,3.36,0,1,0-3.87-2.76,3.36,3.36,0,0,0,3.87,2.76,20.54,20.54,0,0,0,6.15-2.89,3.37,3.37,0,1,0-4.68-.9,3.38,3.38,0,0,0,4.68.9,56.26,56.26,0,0,0,8.71-7.61A3.36,3.36,0,1,0,351.26,11a46.43,46.43,0,0,1-7.62,6.68,11.43,11.43,0,0,1-3.72,1.88c-.21,0-.09,0-.33-.06-.62-.09-.7-.23-1.34-1.68A26.18,26.18,0,0,1,337,13.61c-.35-1.67-.65-3.53-1-5a24.14,24.14,0,0,0-.68-2.6,5.73,5.73,0,0,0-1.91-2.18,6.15,6.15,0,0,0-2.19-.31,6.2,6.2,0,0,0-1.63.75,7,7,0,0,0-1.45,2.19,14,14,0,0,0-.86,2.2,74.77,74.77,0,0,0-1.95,7.43c-.32,1.68-.56,3.3-.76,4.84-.36,2.75-.63,5.53-1,8-.16,1.26-.31,2.37-.46,3.16-.07.28.08,0,.55-.68a3.2,3.2,0,0,1,4.15-.2,6.72,6.72,0,0,1,.88,1.12,37.39,37.39,0,0,1-.58-4.85c-.24-2.59-.5-5.95-.77-10-.07-.86-.14-1.77-.21-2.8-.06-1.2-.12-2.52-.19-3.87C326.73,6,326.53,1,326.42-4s-.05-9.69,0-13.69c.09-4.66.3-7.86.45-10.4.07-2.21.09-3.91.09-5.27,0-1.78-.07-2.94,0-3.68,0-1.08-.05-1.39,0-1.38a4.82,4.82,0,0,1-1,1.86,6.05,6.05,0,0,1-1.92.79,5.56,5.56,0,0,1-1.74-.36c-.69-.52-1.09-1-1-.89a3.37,3.37,0,0,0,4.55,1.4,3.36,3.36,0,0,0,1.4-4.54" transform="translate(-264.3 43.26)"/><path class="cls-1" d="M358,2A6.45,6.45,0,0,0,356,.65a3.36,3.36,0,1,0,2.2,4.22A3.38,3.38,0,0,0,356,.65a6.17,6.17,0,0,0-3.54.74,3.36,3.36,0,1,0,4.74.35,3.36,3.36,0,0,0-4.74-.35,6.94,6.94,0,0,0-1.55,3.18,3.36,3.36,0,1,0,3.84-2.81,3.37,3.37,0,0,0-3.84,2.81,29,29,0,0,0,0,5.92,57.6,57.6,0,0,0,1.21,7.7A21.06,21.06,0,0,0,354,23.54,3.37,3.37,0,1,0,355.28,19,3.38,3.38,0,0,0,354,23.54a9.8,9.8,0,0,0,4.34,3.83,3.36,3.36,0,1,0-2.06-4.29,3.36,3.36,0,0,0,2.06,4.29,11.1,11.1,0,0,0,6.13-.19A3.36,3.36,0,1,0,360.22,25a3.36,3.36,0,0,0,4.25,2.15,30.09,30.09,0,0,0,6.69-3.49,3.36,3.36,0,0,0-3.73-5.6,20.92,20.92,0,0,1-5.06,2.7c-1.23.43-1.41.44-1.81.23-.39-.05-.3,0-.7-.79a11.79,11.79,0,0,1-1.17-3.52,47.92,47.92,0,0,1-1.07-6.79,19.51,19.51,0,0,1-.05-4.32c0-.33-.2.21-.7.88a6,6,0,0,1-2.87.59,7,7,0,0,1-1.1-.67A3.36,3.36,0,1,0,358,2" transform="translate(-264.3 43.26)"/><path class="cls-1" d="M354.82-20.45a6.25,6.25,0,0,1,1.35.42,3.37,3.37,0,0,0-4.65,1,3.36,3.36,0,0,0,1,4.64,3.37,3.37,0,0,0,4.65-1,3.37,3.37,0,0,0-1-4.64,5.92,5.92,0,0,1,1.29,1.68,3.36,3.36,0,0,0-4.25-2.15,3.37,3.37,0,0,0-2.15,4.24,3.36,3.36,0,0,0,4.25,2.15,3.37,3.37,0,0,0,2.15-4.24,5.89,5.89,0,0,1-.7,3.21,3.36,3.36,0,0,0-.19-4.75,3.36,3.36,0,0,0-4.75.19,3.36,3.36,0,0,0,.19,4.75,3.36,3.36,0,0,0,4.75-.19,6.74,6.74,0,0,1-1.93,1,3.37,3.37,0,0,0,3.32-3.41,3.36,3.36,0,0,0-3.41-3.32,3.37,3.37,0,0,0-3.32,3.41,3.38,3.38,0,0,0,3.41,3.32s0,0,.31.07a3.36,3.36,0,0,0,4.09-2.43,3.36,3.36,0,0,0-2.43-4.09,9.79,9.79,0,0,0-2.06-.28,6,6,0,0,0-2.92,1.21,6,6,0,0,0-.76,3.44,6,6,0,0,0,1.49,1.9,6.27,6.27,0,0,0,2.4.64,3.37,3.37,0,0,0,3.3-3.43,3.38,3.38,0,0,0-3.43-3.3" transform="translate(-264.3 43.26)"/><path class="cls-1" d="M380.21-.14a8.79,8.79,0,0,0-.83-1.5,3.36,3.36,0,0,0-4.71-.65,3.37,3.37,0,1,0,4.71.65,6.1,6.1,0,0,0-2.68-1.64,3.37,3.37,0,0,0-3.76,2.92,3.37,3.37,0,0,0,2.93,3.76A3.36,3.36,0,0,0,379.62.48a3.37,3.37,0,0,0-2.92-3.76c-2.69.81-3.6,2-3.83,2.56a3.36,3.36,0,1,0,4.28-2.07,3.36,3.36,0,0,0-4.28,2.07,7.58,7.58,0,0,0-.3,1.7c.19,1.91.62,3.87.95,6,.27,2.86.4,6.53.44,9.64,0,1.34,0,2.58,0,3.58v2.22a3.36,3.36,0,1,0,3.36-3.36A3.36,3.36,0,0,0,374,22.45c6.72,0,6.72,0,6.72,0,0-.35,0-1.05,0-1.86a51.32,51.32,0,0,1,1-10,27.38,27.38,0,0,1,1.46-5.18c.63-1.57.43-1.42.74-1.36A2.07,2.07,0,0,1,385,4.1c.67.07.26-.19,0-.32-.46-1.08-.5-.64-.42.43.69,3.4,2.44,8.26,5,11.17a9.84,9.84,0,0,0,5.2,2.67,8.47,8.47,0,0,0,3.43-.33A17.61,17.61,0,0,0,404,12.14a30.27,30.27,0,0,0,4.26-9.06,15.15,15.15,0,0,0,.47-5.14,14.71,14.71,0,0,0-6-9.5,10.81,10.81,0,0,0-4.84-1.1,3.38,3.38,0,0,0-3.21,3.52,3.38,3.38,0,0,0,3.52,3.21,3.36,3.36,0,0,0,3.2-3.52,3.36,3.36,0,0,0-3.51-3.21,15.93,15.93,0,0,0-8.51,4.14,3.37,3.37,0,0,0,.08,4.76,3.36,3.36,0,0,0,4.75-.07,3.37,3.37,0,0,0-.07-4.76,3.37,3.37,0,0,0-4.76.07,10.35,10.35,0,0,0-2.39,4.27,3.37,3.37,0,0,0,2.67,3.94A3.36,3.36,0,0,0,393.55-3a3.36,3.36,0,0,0-2.67-3.94,3.38,3.38,0,0,0-3.94,2.67,7.76,7.76,0,0,0,1.73,5.49,3.36,3.36,0,0,0,4.76,0,3.37,3.37,0,0,0,0-4.76c-.24-.09,0,.69.13.55s.06-.31.61-.85a6.29,6.29,0,0,1,4.16-2.12,1.32,1.32,0,0,1,1.09.27A5.3,5.3,0,0,1,402-1.22a5.45,5.45,0,0,1-.28,2.56,20.82,20.82,0,0,1-3.32,7,9.19,9.19,0,0,1-3,3.26c.25-.09.52-.12.26-.2-.77,0-.69,0-1.27-.63-1.5-1.52-2.7-5.06-3.19-7.5a10.15,10.15,0,0,0-.31-2.5,7.63,7.63,0,0,0-4.81-3.31,11.37,11.37,0,0,0-3.89.06A9.65,9.65,0,0,0,377,2.77a35.5,35.5,0,0,0-1.86,6.44A60.81,60.81,0,0,0,374,20.52V22.4s0,.05,6.72.05V20.26c0-1,0-2.27,0-3.67,0-3.22-.17-7.14-.49-10.41-.39-2.56-.82-4.51-.93-5.45a2.45,2.45,0,0,1,0,.77,6.16,6.16,0,0,1-1.63,1.66c-2.77-.12-3.51-.68-3.57-.73a.69.69,0,0,0-.09-.16,3.36,3.36,0,0,0,4.34,1.94,3.37,3.37,0,0,0,1.94-4.35" transform="translate(-264.3 43.26)"/><path class="cls-1" d="M358.2,83.44c-3,.83-5.26,1.75-7.91,2.3a3.36,3.36,0,1,0,4,2.59,3.37,3.37,0,0,0-4-2.59,27.33,27.33,0,0,1-9.81.37,3.36,3.36,0,1,0,2.89,3.77,3.37,3.37,0,0,0-2.89-3.77,11.19,11.19,0,0,1-4.29-1.93,3.37,3.37,0,1,0,.81,4.68,3.37,3.37,0,0,0-.81-4.68,15.57,15.57,0,0,1-5.49-8,21.06,21.06,0,0,1-1.09-8.93,20.12,20.12,0,0,1,1.73-6.3,29.46,29.46,0,0,1,4-7.12A22.45,22.45,0,0,1,344,46.67,33.74,33.74,0,0,1,353,43c3.43-1.15,5.35-1.47,7.62-.91a12.56,12.56,0,0,1,4.54,2.07,13.18,13.18,0,0,1,4.57,7.15,25,25,0,0,1,.48,5.8,23.61,23.61,0,0,1-.23,5.42,5.76,5.76,0,0,1-1.58,2.93c-.39.43-.2.32-.11.23a10.26,10.26,0,0,1,2.08.85c.18.39.15.06.3-1a20,20,0,0,1,2.2-5.24,3.36,3.36,0,1,0-4.57,1.33,3.36,3.36,0,0,0,4.57-1.33,40.26,40.26,0,0,1,6-8.49,3.36,3.36,0,1,0-4.75.18,3.36,3.36,0,0,0,4.75-.18,28.5,28.5,0,0,1,8.68-6.11A3.36,3.36,0,1,0,383,44.14a3.37,3.37,0,0,0,4.49,1.57c3.11-1.35,6.77-2.57,10.46-3.84a3.36,3.36,0,1,0-2.19-6.36c-3.65,1.26-7.56,2.56-11.07,4.09a38.28,38.28,0,0,0-10.76,7.59,50,50,0,0,0-7,9.93A28.53,28.53,0,0,0,364,64.47a11.59,11.59,0,0,0,.53,5.45,6.34,6.34,0,0,0,5.13,2.38,8.66,8.66,0,0,0,3.51-2.12A15.48,15.48,0,0,0,376.49,64a30.72,30.72,0,0,0,.4-7,33,33,0,0,0-.69-7.37,22.88,22.88,0,0,0-7.06-10.86,22.22,22.22,0,0,0-7-3.22,21.22,21.22,0,0,0-11,1,41.05,41.05,0,0,0-10.21,4.12A31.49,31.49,0,0,0,330,49.79a38.32,38.32,0,0,0-4.84,8.6,29.32,29.32,0,0,0-2.23,8.27,30.83,30.83,0,0,0,1.43,11.74,25,25,0,0,0,7.91,11.23,20.89,20.89,0,0,0,7.07,3.1,37.19,37.19,0,0,0,12.37-.41c3.16-.68,5.67-1.67,8.32-2.4a3.36,3.36,0,0,0-1.81-6.48" transform="translate(-264.3 43.26)"/><path class="cls-2" d="M445-31.51a9.49,9.49,0,0,0-5,.07A3.36,3.36,0,0,0,438-27.16a3.37,3.37,0,0,0,4.28,2.07,3.36,3.36,0,0,0,2.07-4.28A3.36,3.36,0,0,0,440-31.44a5.55,5.55,0,0,0-2.29,2.33,3.37,3.37,0,0,0,2.07,4.29,3.36,3.36,0,0,0,4.28-2.07A3.36,3.36,0,0,0,442-31.17a3.36,3.36,0,0,0-4.29,2.06,6,6,0,0,0,.66,3.54,3.36,3.36,0,0,0,4.75.37,3.36,3.36,0,0,0,.36-4.74,3.36,3.36,0,0,0-4.74-.37,3.36,3.36,0,0,0-.37,4.74,6.11,6.11,0,0,0,2.33,1.28,7.26,7.26,0,0,0,1.68,0,22.3,22.3,0,0,0,4.28-1.59,3.37,3.37,0,0,0,1.55-4.5,3.36,3.36,0,0,0-4.5-1.55,3.36,3.36,0,0,0-1.55,4.49,3.37,3.37,0,0,0,4.5,1.56c2.55-1.5,5.34-3.45,8.28-5.21a3.36,3.36,0,0,0,1.16-4.61,3.35,3.35,0,0,0-4.61-1.16,3.35,3.35,0,0,0-1.16,4.61A3.36,3.36,0,0,0,455-31.09c3-1.57,6.26-3,8.63-4a3.37,3.37,0,0,0,1.88-4.38,3.36,3.36,0,0,0-4.37-1.87,3.36,3.36,0,0,0-1.88,4.37,3.36,3.36,0,0,0,4.37,1.88c2.38-.88,4.06-1.29,5.67-2.64a3.36,3.36,0,0,0-.33-4.74,3.36,3.36,0,0,0-4.75.34c.84-.45-.25-.25-3,.76-2.6,1-6.17,2.63-9.51,4.39-3.31,2-6.1,3.93-8.17,5.14a12.84,12.84,0,0,1-2.42.93,3.38,3.38,0,0,1,.74,0,6,6,0,0,1,1.68,1,5.87,5.87,0,0,1,.58,3.05,5.7,5.7,0,0,1-.9,1.28c-.68.39-.25.3-.79.29a3.36,3.36,0,0,0,4.41-1.78A3.36,3.36,0,0,0,445-31.51" transform="translate(-264.3 43.26)"/><path class="cls-2" d="M452.29-38.87c.15.1-.36,5.34-.67,11.6a3.37,3.37,0,0,0,3.19,3.53,3.37,3.37,0,0,0,3.53-3.2,3.36,3.36,0,0,0-3.2-3.52,3.36,3.36,0,0,0-3.52,3.19c-.11,2.82-.18,5.8-.18,8.62a3.37,3.37,0,0,0,3.37,3.36,3.36,3.36,0,0,0,3.36-3.36A3.36,3.36,0,0,0,454.8-22a3.36,3.36,0,0,0-3.36,3.36,83.2,83.2,0,0,0,.45,9.45,3.37,3.37,0,0,0,3.77,2.9,3.37,3.37,0,0,0,2.9-3.77,3.37,3.37,0,0,0-3.77-2.9,3.37,3.37,0,0,0-2.9,3.77,12,12,0,0,0,2.27,5.73,3.37,3.37,0,0,0,4.76.06A3.37,3.37,0,0,0,459-8.17a3.37,3.37,0,0,0-4.76-.05,3.36,3.36,0,0,0-.06,4.75A6.76,6.76,0,0,0,457.64-2,3.37,3.37,0,0,0,461-5.39a3.36,3.36,0,0,0-3.4-3.33,3.36,3.36,0,0,0-3.33,3.4A3.36,3.36,0,0,0,457.64-2a7.62,7.62,0,0,0,3.09-1,3.37,3.37,0,0,0,1-4.66,3.36,3.36,0,0,0-4.65-1c-.18.13.28,0,.52-.08a13.07,13.07,0,0,1,1.41.55c-.08.09-.18-.28-.43-2a70.66,70.66,0,0,1-.38-8.51c0-2.74.06-5.6.17-8.32.3-6.08.82-11.5.51-13.42a3.38,3.38,0,0,0-4-2.52,3.37,3.37,0,0,0-2.52,4" transform="translate(-264.3 43.26)"/><path class="cls-2" d="M469.89-28.46a6.27,6.27,0,0,0-3.18-.12,3.38,3.38,0,0,0-1.85,4.39,3.37,3.37,0,0,0,4.39,1.85,3.37,3.37,0,0,0,1.85-4.39,3.37,3.37,0,0,0-4.39-1.85A6.53,6.53,0,0,0,464.83-27a3.36,3.36,0,0,0,.73,4.7,3.37,3.37,0,0,0,4.7-.73,3.36,3.36,0,0,0-.73-4.7,3.36,3.36,0,0,0-4.7.73,16,16,0,0,0-1.44,2.84,3.36,3.36,0,0,0,1.83,4.39,3.36,3.36,0,0,0,4.39-1.83A3.36,3.36,0,0,0,467.78-26a3.36,3.36,0,0,0-4.39,1.83c-1,2.39-2.32,6-4,9.57a68.45,68.45,0,0,1-4.81,8C452.06-3.12,450.2-1.34,449-.9c-.51.26-.35.22-.29.18a10.21,10.21,0,0,1,1.42.42c.31.4.34.46.29-.44a8.7,8.7,0,0,1,.45-3.6,18.86,18.86,0,0,1,3-6A34.19,34.19,0,0,1,458.37-15a40.89,40.89,0,0,1,8.1-5.09c2.36-1.31,3.58-1.83,4.44-1.89a3.36,3.36,0,0,0,2.93-3.75,3.36,3.36,0,0,0-3.74-2.93,3.36,3.36,0,0,0-2.93,3.75,3.36,3.36,0,0,0,3.74,2.93c.92-.21.47-.27.21-.27a3.37,3.37,0,0,0,4.53-1.47,3.36,3.36,0,0,0-1.47-4.52,3.35,3.35,0,0,0-4.52,1.46,3.37,3.37,0,0,0,1.46,4.53c-.46-.45-.49-.42-.36.64a3.36,3.36,0,0,0,3.81,2.85,3.38,3.38,0,0,0,2.85-3.81,3.37,3.37,0,0,0-3.81-2.85,3.36,3.36,0,0,0-2.85,3.81c.43,3.72-2.12,11.7-2.45,13.38A3.37,3.37,0,0,0,471-4.29,3.36,3.36,0,0,0,474.93-7c.15-1,2.89-9.74,2.51-15.36a9.89,9.89,0,0,0-2.69-5.49,7.92,7.92,0,0,0-5-.71A20.84,20.84,0,0,0,463.35-26,50.63,50.63,0,0,0,454-20.11a43.82,43.82,0,0,0-5.52,5.75,28.54,28.54,0,0,0-4.1,8.14,18.06,18.06,0,0,0-.69,6.1,9.4,9.4,0,0,0,2,4.92A6.63,6.63,0,0,0,449.48,6a8.76,8.76,0,0,0,2.44-.82c2.25-1.05,5.28-3.93,8.12-7.88a74.57,74.57,0,0,0,5.36-8.95c1.86-3.92,3.28-7.7,4.21-10a7.25,7.25,0,0,1,.65-1.43,9.51,9.51,0,0,1-1,.74A6.26,6.26,0,0,1,467-22.4,3.37,3.37,0,0,0,471.47-24,3.36,3.36,0,0,0,469.89-28.46Z" transform="translate(-264.3 43.26)"/><path class="cls-2" d="M489.91-31.12c.95.08,3.54,3.46,3.26,4.69a3.38,3.38,0,0,0-1.69-4.45,3.37,3.37,0,0,0-4.45,1.7,3.36,3.36,0,0,0,1.69,4.44,3.36,3.36,0,0,0,4.45-1.69,5.81,5.81,0,0,1-.64.92,3.35,3.35,0,0,0,.12-4.75,3.35,3.35,0,0,0-4.75-.12,3.35,3.35,0,0,0-.12,4.75,3.35,3.35,0,0,0,4.75.12l.32-.23a3.37,3.37,0,0,0,.75-4.7,3.37,3.37,0,0,0-4.7-.75,3.36,3.36,0,0,0-.75,4.7,3.36,3.36,0,0,0,4.7.75c.54-.4,1.38-1,2.53-1.64A42.77,42.77,0,0,1,500.11-30a36.48,36.48,0,0,1,6.16-1.81,8.17,8.17,0,0,1,2-.22l1.18-.14a6.36,6.36,0,0,1-1-.18,3.38,3.38,0,0,0,4.33-2,3.36,3.36,0,0,0-2-4.33,3.37,3.37,0,0,0-4.33,2,3.36,3.36,0,0,0,2,4.33,6.08,6.08,0,0,1-1.37-1,3.37,3.37,0,0,0,4.73.51,3.38,3.38,0,0,0,.51-4.73,3.36,3.36,0,0,0-4.73-.51,3.36,3.36,0,0,0-.51,4.73,6,6,0,0,1-.72-2.13A3.36,3.36,0,0,0,509.56-32,3.36,3.36,0,0,0,513-35.32a3.36,3.36,0,0,0-3.28-3.45,3.37,3.37,0,0,0-3.44,3.28c.57-1.78.48-1.67.07-1.24a3.37,3.37,0,0,0,.09,4.76,3.37,3.37,0,0,0,4.76-.1,13.18,13.18,0,0,0,1.26-1.49c.51-2.32.13-3.5-.22-4a6.2,6.2,0,0,0-1.51-1.09,6.27,6.27,0,0,0-1.55-.23,11.5,11.5,0,0,0-1.48.19,11.44,11.44,0,0,0-2.69.28,46.11,46.11,0,0,0-7.59,2.26,50.88,50.88,0,0,0-5.56,3.06c-1.2.72-2.27,1.43-3,1.92-.36.27-.74.57-1,.81a6,6,0,0,0-.87,1.19c-.3,1.3,2.31,4.7,3.34,4.78A3.36,3.36,0,0,0,493.49-28a3.35,3.35,0,0,0-3.58-3.13" transform="translate(-264.3 43.26)"/><path class="cls-2" d="M502.92-37.62a7.07,7.07,0,0,0-1.4-2.88,3.36,3.36,0,0,0-4.75.2,3.36,3.36,0,0,0,.2,4.75,3.37,3.37,0,0,0,4.76-.2,3.37,3.37,0,0,0-.21-4.75,5.92,5.92,0,0,0-2.5-.93,3.37,3.37,0,0,0-3.24,3.49,3.36,3.36,0,0,0,3.49,3.23,3.36,3.36,0,0,0,3.24-3.48A3.37,3.37,0,0,0,499-41.43a6,6,0,0,0-2.38,1.06,3.36,3.36,0,0,0,.05,4.76,3.35,3.35,0,0,0,4.75,0,3.36,3.36,0,0,0-.05-4.76,3.36,3.36,0,0,0-4.75.05,6.47,6.47,0,0,0-1,1.8c-.43,1.88-.74,5.13-1.35,9.08-.3,1.57-.67,3.41-1.05,5.39s-.82,4.3-1.18,6.45-.61,4.39-.81,6.3a3.37,3.37,0,0,0,3,3.69,3.36,3.36,0,0,0,3.69-3,3.36,3.36,0,0,0-3-3.69,3.36,3.36,0,0,0-3.69,3,38.22,38.22,0,0,0-.48,7.42,3.37,3.37,0,0,0,3.64,3.07,3.36,3.36,0,0,0,3.06-3.64,3.38,3.38,0,0,0-3.64-3.07,3.36,3.36,0,0,0-3.06,3.64,9.52,9.52,0,0,0,1,3.32A3.37,3.37,0,0,0,496.32.53a3.37,3.37,0,0,0,1.14-4.62,3.37,3.37,0,0,0-4.62-1.14A3.37,3.37,0,0,0,491.7-.61a7,7,0,0,0,3.48,2.38A3.37,3.37,0,0,0,499.07-1a3.37,3.37,0,0,0-2.74-3.89l1.13.77s0,.14,0-.41a31.6,31.6,0,0,1,.46-6.06c.2-1.93.45-3.94.77-6s.75-4.17,1.15-6.23.75-3.81,1.07-5.53c.65-4.24,1-7.44,1.21-8.45a4.25,4.25,0,0,1-.66,1.14,5.94,5.94,0,0,1-2.17.95,6,6,0,0,1-2.3-.84c-.57-.79-.72-1.16-.66-.81a3.36,3.36,0,0,0,3.93,2.68,3.37,3.37,0,0,0,2.68-3.94" transform="translate(-264.3 43.26)"/><path class="cls-2" d="M510.48-19.77c-.23.42-.64,1.08-.18.84a3.37,3.37,0,0,0,1.12-4.62,3.37,3.37,0,0,0-4.63-1.12A3.38,3.38,0,0,0,505.67-20a3.37,3.37,0,0,0,4.63,1.11,5.52,5.52,0,0,1,2.1-.72,3.36,3.36,0,0,0,2.64-4,3.36,3.36,0,0,0-4-2.64,3.36,3.36,0,0,0-2.64,3.95,3.37,3.37,0,0,0,4,2.64,8.91,8.91,0,0,1,2.6-.19,3.36,3.36,0,0,0,3.61-3.1,3.37,3.37,0,0,0-3.1-3.61,3.37,3.37,0,0,0-3.61,3.1,3.36,3.36,0,0,0,3.1,3.61c.76,0,.64,0,.28-.19a3.36,3.36,0,0,0,4.76,0,3.36,3.36,0,0,0,0-4.76,8.86,8.86,0,0,0-4.49-1.73,18.18,18.18,0,0,0-4.43.31,15.11,15.11,0,0,0-4.29,1.57,7.57,7.57,0,0,0-3,4.7A3.38,3.38,0,0,0,507-16.5,3.38,3.38,0,0,0,510.48-19.77Z" transform="translate(-264.3 43.26)"/><path class="cls-2" d="M508.38-5.15A7.65,7.65,0,0,0,511-2.43a3.36,3.36,0,0,0,4.56-1.35,3.36,3.36,0,0,0-1.35-4.56A3.36,3.36,0,0,0,509.64-7,3.36,3.36,0,0,0,511-2.43a10.3,10.3,0,0,0,3.45,1A3.36,3.36,0,0,0,518-4.58a3.36,3.36,0,0,0-3.1-3.6,3.36,3.36,0,0,0-3.6,3.11,3.36,3.36,0,0,0,3.1,3.6,16.72,16.72,0,0,0,8.14-2A3.36,3.36,0,0,0,524-8a3.36,3.36,0,0,0-4.55-1.37,7.3,7.3,0,0,1-4.46,1.23c-.52,0-.55,0-.74-.16s.21.33.31.42a3.37,3.37,0,0,0-4.45-1.68A3.37,3.37,0,0,0,508.38-5.15Z" transform="translate(-264.3 43.26)"/><path class="cls-2" d="M544.38-40.06c-.1,0-.29-.09-.48-.13A3.37,3.37,0,0,0,540-37.51a3.35,3.35,0,0,0,2.68,3.93,3.36,3.36,0,0,0,3.93-2.68,3.38,3.38,0,0,0-2.68-3.93c-.48-.06-3.22,5.48-2.53,6.1a3.38,3.38,0,0,0,4.68-.9,3.36,3.36,0,0,0-.9-4.67,3.36,3.36,0,0,0-4.67.9,3.37,3.37,0,0,0,.89,4.67,7.28,7.28,0,0,0,.81.42,3.37,3.37,0,0,0,4.42-1.78,3.37,3.37,0,0,0-1.78-4.41,3.36,3.36,0,0,0-4.41,1.78,3.36,3.36,0,0,0,1.77,4.41l1.36.54a3.36,3.36,0,0,0,4.34-1.94,3.35,3.35,0,0,0-1.94-4.34,3.35,3.35,0,0,0-4.34,1.94,3.36,3.36,0,0,0,1.94,4.34c1.52.49,3.21,1,4.47,1.53a3.35,3.35,0,0,0,4.43-1.72,3.36,3.36,0,0,0-1.72-4.43A3.36,3.36,0,0,0,546.29-36,3.35,3.35,0,0,0,548-31.6a3,3,0,0,1,1,.54,3.36,3.36,0,0,0,4.75-.33,3.36,3.36,0,0,0-.33-4.74,3.36,3.36,0,0,0-4.74.32,3.37,3.37,0,0,0,.32,4.75c.1,0-.4-1.09-.49-1.81A3.38,3.38,0,0,0,551.29-29a3.37,3.37,0,0,0,3.86-2.78,6.65,6.65,0,0,0-1.73-4.35,12.25,12.25,0,0,0-2.7-1.62c-1.71-.75-3.72-1.33-5-1.73l-.95-.38c-.1,0,0,0,.33.2.67.61-2.06,6.13-2.5,6.08l-.26-.06a3.36,3.36,0,0,0,4.2-2.21,3.35,3.35,0,0,0-2.21-4.21" transform="translate(-264.3 43.26)"/><path class="cls-2" d="M537.56-34.52a6.85,6.85,0,0,0-3.06,2,3.35,3.35,0,0,0,.68,4.7,3.36,3.36,0,0,0,4.71-.68,3.37,3.37,0,0,0-.69-4.71,3.36,3.36,0,0,0-4.7.69,9.68,9.68,0,0,0-1.18,2.42,3.37,3.37,0,0,0,2.21,4.21,3.37,3.37,0,0,0,4.21-2.21,3.36,3.36,0,0,0-2.21-4.21,3.35,3.35,0,0,0-4.21,2.21,20,20,0,0,0-.71,5,3.37,3.37,0,0,0,3.31,3.41A3.36,3.36,0,0,0,539.34-25,3.37,3.37,0,0,0,536-28.42a3.38,3.38,0,0,0-3.42,3.32,16.23,16.23,0,0,0,.7,5.34,10,10,0,0,0,5.46,4.85,11.68,11.68,0,0,0,3.11.1c1.16-.23,1.4-.34,1.79-.24-.43-.11-.58-.23-.43,0a4.83,4.83,0,0,1,.28,1.47,7.22,7.22,0,0,1,.16,3c-.1.57-.39.92-1.08,1.5a2.48,2.48,0,0,1-.77.59A3.38,3.38,0,0,0,540.33-4a3.36,3.36,0,0,0,4.51,1.5A3.38,3.38,0,0,0,546.34-7a3.36,3.36,0,0,0-4.51-1.5c-.53.34.21.12.94.06a3.37,3.37,0,0,0-3.84,2.81,3.36,3.36,0,0,0,2.81,3.84,3.36,3.36,0,0,0,3.84-2.81,3.37,3.37,0,0,0-2.81-3.84,6,6,0,0,1,1.51.8,3.36,3.36,0,0,0-4.75-.19,3.36,3.36,0,0,0-.19,4.75,3.37,3.37,0,0,0,4.76.19,3.36,3.36,0,0,0,.18-4.75c.15.19.37.58.36.54a3.36,3.36,0,0,0-4.28-2.08,3.38,3.38,0,0,0-2.08,4.28,7.5,7.5,0,0,0,1.06,1.82,6.43,6.43,0,0,0,2.4,1.29,6.8,6.8,0,0,0,3.47-.91,10.38,10.38,0,0,0,1.91-1.4,11.91,11.91,0,0,0,3.13-5.08,16,16,0,0,0-.1-5.5A12.19,12.19,0,0,0,548.66-19a9.09,9.09,0,0,0-3.39-2.54,11.78,11.78,0,0,0-4.41.1,1.59,1.59,0,0,1-.6,0c-.35,0-.45,0-.73-.83a7.42,7.42,0,0,1-.2-2.61,10.9,10.9,0,0,1,.41-3.23c.11-.38.1-.37.15-.4s-.77.48-1.18.65a3.37,3.37,0,0,0,2.74-3.89,3.37,3.37,0,0,0-3.89-2.74" transform="translate(-264.3 43.26)"/><path class="cls-2" d="M568.33-34.45A6.34,6.34,0,0,0,565.05-33a3.36,3.36,0,0,0,.31,4.75,3.38,3.38,0,0,0,4.75-.31,3.37,3.37,0,0,0-.32-4.75,3.35,3.35,0,0,0-4.74.31,8,8,0,0,0-1.14,2A3.36,3.36,0,0,0,566-26.65a3.36,3.36,0,0,0,4.29-2.05,3.36,3.36,0,0,0-2-4.29,3.35,3.35,0,0,0-4.29,2.05,18.11,18.11,0,0,0-.76,4.11,3.36,3.36,0,0,0,3.09,3.61,3.37,3.37,0,0,0,3.62-3.1,3.37,3.37,0,0,0-3.1-3.61,3.36,3.36,0,0,0-3.61,3.1,19.82,19.82,0,0,0-.07,4.89,22.55,22.55,0,0,0,2.84,7.46,3.36,3.36,0,0,0,4.64,1.07A3.37,3.37,0,0,0,571.62-18,3.36,3.36,0,0,0,567-19.11a3.36,3.36,0,0,0-1.07,4.63A17.8,17.8,0,0,0,571.75-9a3.37,3.37,0,0,0,4.53-1.47A3.36,3.36,0,0,0,574.81-15a3.35,3.35,0,0,0-4.52,1.46A3.37,3.37,0,0,0,571.75-9a11.29,11.29,0,0,0,9-.49A3.37,3.37,0,0,0,582-14.11a3.37,3.37,0,0,0-4.6-1.24,3.37,3.37,0,0,0-1.24,4.59,3.38,3.38,0,0,0,4.6,1.24,16.45,16.45,0,0,0,5.93-7A3.36,3.36,0,0,0,585-21a3.36,3.36,0,0,0-4.44,1.71c-.91,2.12-1.84,3.22-3.14,3.9s-1.62.83-2.78.23a8.11,8.11,0,0,1-3-3,12.79,12.79,0,0,1-1.84-4.81,11.11,11.11,0,0,1,.1-3.14,10.26,10.26,0,0,1,.42-2.61c.06-.21-.06,0-.14.16a6.83,6.83,0,0,1-2,.81A3.36,3.36,0,0,0,571.59-31a3.37,3.37,0,0,0-3.26-3.47" transform="translate(-264.3 43.26)"/><path class="cls-2" d="M601-32.62a7.48,7.48,0,0,0-1.61-1.89,3.37,3.37,0,0,0-4.67.89,3.36,3.36,0,0,0,.89,4.68,3.36,3.36,0,0,0,4.67-.9,3.35,3.35,0,0,0-.89-4.67,6,6,0,0,0-3.08-.47,3.35,3.35,0,0,0-2.21,4.21,3.37,3.37,0,0,0,4.21,2.21,3.37,3.37,0,0,0,2.21-4.21A3.35,3.35,0,0,0,596.27-35a6,6,0,0,0-2.16,1.86,3.36,3.36,0,0,0,1.54,4.5,3.36,3.36,0,0,0,4.5-1.53,3.36,3.36,0,0,0-1.53-4.5,3.38,3.38,0,0,0-4.51,1.53,9.35,9.35,0,0,0-.45,3.63,26.85,26.85,0,0,0,.81,5.61,3.36,3.36,0,0,0,4.1,2.4,3.37,3.37,0,0,0,2.4-4.11,3.36,3.36,0,0,0-4.11-2.4,3.36,3.36,0,0,0-2.39,4.11c.85,2.82,2.62,5.8,4.92,7.29A3.35,3.35,0,0,0,604-17.84a3.37,3.37,0,0,0-1.25-4.59,3.37,3.37,0,0,0-4.59,1.25,3.36,3.36,0,0,0,1.25,4.59,8.33,8.33,0,0,0,5,.67,3.37,3.37,0,0,0,2.4-4.11,3.36,3.36,0,0,0-4.11-2.4,3.36,3.36,0,0,0-2.4,4.11,3.37,3.37,0,0,0,4.11,2.4,11.57,11.57,0,0,0,4.54-2.9,3.35,3.35,0,0,0-.1-4.75,3.35,3.35,0,0,0-4.75.1c-.8.86-1,1-1.4,1s.24.19,0,0c-.7-.21-1.21-1.24-1.79-3.26a17.89,17.89,0,0,1-.56-4.07c0-.9-.08-1-.23-.39a5.86,5.86,0,0,1-1.88,1.59,5.93,5.93,0,0,1-2.7-.39c-.37-.33-.61-.62-.48-.37A3.37,3.37,0,0,0,599.67-28,3.36,3.36,0,0,0,601-32.62Z" transform="translate(-264.3 43.26)"/><path class="cls-2" d="M613-29.17c.58-1.07,1,5.34,7.11,10.26a3.36,3.36,0,0,0,4.7-.71,3.37,3.37,0,0,0-.71-4.7c-4.24-2.74-4.31-8.51-9.06-11.27a3.37,3.37,0,0,0-4.23,2.19A3.37,3.37,0,0,0,613-29.17Z" transform="translate(-264.3 43.26)"/><path class="cls-2" d="M448.39,31.84c-.44,0,0,.13.72.4a3.36,3.36,0,1,0,.9,4.67,3.38,3.38,0,0,0-.9-4.67,6.23,6.23,0,0,1,1.28,2.37,3.37,3.37,0,1,0-3.3,3.42,3.36,3.36,0,0,0,3.3-3.42,7.71,7.71,0,0,1-.29,1.23A3.36,3.36,0,1,0,445.49,37a3.35,3.35,0,0,0,4.61-1.16c-.05,0,.29-.27,1.09-1a34.31,34.31,0,0,1,3.2-2.75c1.77-1.16,4.13-2.51,6.52-3.78,2.84-1.5,5.54-2.79,7.65-3.77A3.36,3.36,0,1,0,464.09,23a3.37,3.37,0,0,0,4.47,1.63c1.26-.63,2.12-1.05,2.73-1.3a3.36,3.36,0,1,0-4.39-1.85,3.36,3.36,0,0,0,4.39,1.85c.93-.43.79-.45-.5-.46a3.36,3.36,0,1,0-2.2-4.22,3.38,3.38,0,0,0,2.2,4.22,23.43,23.43,0,0,1-2-4.65,3.36,3.36,0,1,0,5.3,4.14,6.28,6.28,0,0,0,1.07-2.71c-4.21-3.4-5.63-2.92-6.58-2.47-.67.27-1.74.79-2.94,1.39-2.06.95-4.92,2.32-7.89,3.89-2.47,1.32-5.1,2.82-7.24,4.23a40.6,40.6,0,0,0-3.85,3.27,14.66,14.66,0,0,0-2.2,2.27,6.35,6.35,0,0,0-.8,2.54,6.17,6.17,0,0,0,1.68,3.08,7.44,7.44,0,0,0,3.54.74,3.36,3.36,0,0,0-.49-6.71" transform="translate(-264.3 43.26)"/><path class="cls-2" d="M450.11,20.29a8.9,8.9,0,0,0-1.07,3,3.36,3.36,0,1,0,3.77-2.91A3.37,3.37,0,0,0,449,23.3,54.66,54.66,0,0,0,450,37a3.37,3.37,0,1,0,2.57-4A3.37,3.37,0,0,0,450,37a14.15,14.15,0,0,0,3,6.44,3.37,3.37,0,1,0-.23-4.76,3.37,3.37,0,0,0,.23,4.76,6.78,6.78,0,0,0,4.68,1.11,3.36,3.36,0,1,0-4.18-2.27,3.36,3.36,0,0,0,4.18,2.27,8.91,8.91,0,0,0,3.53-2.66,3.36,3.36,0,0,0-5.32-4.12c-.44.6-.24.45-.11.33.37,0,1.63.34,1.74.35-.24,0-.54-1-.95-2.89a44.14,44.14,0,0,1-.82-11.53c0-.31-.1.1.07-.17a3.36,3.36,0,1,0-5.68-3.6" transform="translate(-264.3 43.26)"/><path class="cls-2" d="M468.44,18.43c0-.05-.08.37-.22.78a3.37,3.37,0,1,0-4.45,1.67,3.36,3.36,0,0,0,4.45-1.67,6.13,6.13,0,0,1-1.56,1.57,3.37,3.37,0,1,0-4.48-1.63,3.37,3.37,0,0,0,4.48,1.63,6.18,6.18,0,0,1-3-.1,3.37,3.37,0,1,0-1.3-4.58,3.38,3.38,0,0,0,1.3,4.58c-.86-.78-1.12-1.19-1-.81a16,16,0,0,1,.64,2.61,3.36,3.36,0,1,0,2.72-3.9,3.36,3.36,0,0,0-2.72,3.9c.2,1.24.38,2.77.52,4.66A3.36,3.36,0,1,0,467,23.55a3.36,3.36,0,0,0-3.11,3.59c.08,2,.11,4.46.12,6.93a3.36,3.36,0,1,0,3.35-3.37A3.36,3.36,0,0,0,464,34.07c0,8.4-.57,17.36,1.12,21.64A3.37,3.37,0,0,0,471.25,53c-1.13-2-.59-10.27-.55-18.89,0-2.53,0-5.08-.13-7.31s-.37-4-.6-5.42a23.94,23.94,0,0,0-1-3.77A6.69,6.69,0,0,0,467,14.8a6,6,0,0,0-3.15-.12,6,6,0,0,0-1.72,1.75,6.83,6.83,0,0,0-.37,1.77,3.36,3.36,0,0,0,6.72.23" transform="translate(-264.3 43.26)"/><path class="cls-2" d="M513.36,18.5A7.78,7.78,0,0,0,514,14a3.37,3.37,0,1,0-2.13,4.25A3.36,3.36,0,0,0,514,14a5.5,5.5,0,0,0-3.79-2.39,3.36,3.36,0,1,0,3.69,3,3.37,3.37,0,0,0-3.69-3,6.79,6.79,0,0,0-1.79.61,3.36,3.36,0,1,0,4.6,1.24,3.37,3.37,0,0,0-4.6-1.24,13.82,13.82,0,0,0-2.13,1.67c-.95.9-2.08,2.08-3.29,3.42a82.06,82.06,0,0,0-6.87,8.34,62.94,62.94,0,0,0-3.23,5.92,32.17,32.17,0,0,0-3.1,7.77,8.25,8.25,0,0,0,0,1.87,3.36,3.36,0,1,0,2.83-3.83,3.36,3.36,0,0,0-2.83,3.83,6,6,0,0,0,2.18,2.94,3.36,3.36,0,1,0-1.7-4.44,3.36,3.36,0,0,0,1.7,4.44,6.06,6.06,0,0,0,3.37-.14,3.37,3.37,0,1,0-4.53-1.48A3.37,3.37,0,0,0,495.28,44a8.85,8.85,0,0,0,1.49-1.08,3.36,3.36,0,1,0-4.57-4.94c-.17.16-.05.08,0,0a6.27,6.27,0,0,1,2.42,0,6.12,6.12,0,0,1,1.73,2.2c0,.18,0,.43,0,.27a24.08,24.08,0,0,1,2.49-5.91,52.54,52.54,0,0,1,2.83-5.22,71.17,71.17,0,0,1,6.21-7.49c1.18-1.31,2.15-2.32,2.95-3.08a4.6,4.6,0,0,1,.86-.73s-.49.17-.88.25A6.09,6.09,0,0,1,508,16.9c-.44-1.55-.41-1.79-.54-1.64a3.37,3.37,0,1,0,5.9,3.24Z" transform="translate(-264.3 43.26)"/><path class="cls-2" d="M506.71,24a6,6,0,0,0-3.62-.27,3.37,3.37,0,1,0,4.51,1.5,3.36,3.36,0,0,0-4.51-1.5,6.07,6.07,0,0,0-1.8,2,3.36,3.36,0,1,0,4.36-1.91,3.36,3.36,0,0,0-4.36,1.91,9.07,9.07,0,0,0-.39,2.14,3.36,3.36,0,1,0,3.56-3.15,3.37,3.37,0,0,0-3.56,3.15c-.07,1.19,0,2.81,0,4.58-.15,3.1-.48,7.41-.3,10.78a3.36,3.36,0,1,0,3.17-3.54,3.36,3.36,0,0,0-3.17,3.54,14.35,14.35,0,0,0,1.08,5,3.37,3.37,0,1,0,1.42-4.54,3.36,3.36,0,0,0-1.42,4.54,6.82,6.82,0,0,0,2.63,2.38,3.36,3.36,0,1,0-2-4.31,3.36,3.36,0,0,0,2,4.31,6.78,6.78,0,0,0,3.78-.29,3.36,3.36,0,0,0-3-6s1-.06,1.46,0c.4.25,1,.85,1.05.82a5.66,5.66,0,0,1-.33-2.26c-.16-2.86.16-6.88.31-10.28,0-2,0-3.43,0-4.29,0-.41,0-.35-.05-.12a6.09,6.09,0,0,1-1.46,1.57,6.2,6.2,0,0,1-3.18-.19A3.36,3.36,0,0,0,506.71,24" transform="translate(-264.3 43.26)"/><path class="cls-2" d="M539.83,14.86c0-.44,0-1.15,0-1.65a3.37,3.37,0,1,0-3.31,3.41,3.36,3.36,0,0,0,3.31-3.41V12.4a3.36,3.36,0,1,0-3.43,3.3,3.37,3.37,0,0,0,3.43-3.3c-6.71.35-6.68,1.09-6.65,2.25a3.37,3.37,0,1,0,3.26-3.46,3.38,3.38,0,0,0-3.26,3.46c.07,1.32.16,3.14.21,5.5.06,3.11.06,7,0,11-.08,2.37-.2,4.79-.3,7a86.33,86.33,0,0,0-.3,9.9,8.58,8.58,0,0,0,.47,2,3.36,3.36,0,1,0,1.8-4.4,3.36,3.36,0,0,0-1.8,4.4,6.1,6.1,0,0,0,3,2.45,3.36,3.36,0,1,0-2.78-3.86,3.36,3.36,0,0,0,2.78,3.86,6.27,6.27,0,0,0,3.3-1,3.36,3.36,0,1,0-4.72-.56,3.36,3.36,0,0,0,4.72.56,11.32,11.32,0,0,0,1.54-1.61,3.36,3.36,0,0,0-5.29-4.15,2.66,2.66,0,0,1-.41.48,7.6,7.6,0,0,1,1.94-.41,6.54,6.54,0,0,1,2.13,1.59c0,.11,0,.21,0-.1a84.14,84.14,0,0,1,.33-8.89c.1-2.24.22-4.7.31-7.17.08-4.06.07-8.08,0-11.27-.06-2.44-.15-4.37-.22-5.64,0-1.09-.06-1.88-.07-2.21-6.73.31-6.73.7-6.73,1.11s0,1.07,0,1a3.36,3.36,0,1,0,6.69.61" transform="translate(-264.3 43.26)"/><path class="cls-2" d="M543.88,31.49a8.56,8.56,0,0,1-1.62,1.44,3.36,3.36,0,1,0-4-2.53,3.37,3.37,0,0,0,4,2.53c-.06,0,0,0,.68.07a3.37,3.37,0,1,0-3-3.69,3.37,3.37,0,0,0,3,3.69c1.46.14,4,.6,8.07,1.23a3.36,3.36,0,0,0,1-6.65c-4-.61-6.61-1.09-8.39-1.28a10.94,10.94,0,0,0-2.87.07A6.54,6.54,0,0,0,537.63,29a3.37,3.37,0,0,0,6.25,2.5Z" transform="translate(-264.3 43.26)"/><path class="cls-2" d="M450.38,91.76a6.1,6.1,0,0,1,1.79,1.56,3.37,3.37,0,1,0-1.76,4.43,3.36,3.36,0,0,0,1.76-4.43c.09.31.17.86.18.9a3.36,3.36,0,1,0-3.58,3.13,3.36,3.36,0,0,0,3.58-3.13c0-.06-.05,0,.29-.56A3.36,3.36,0,1,0,448,94.78a3.37,3.37,0,0,0,4.62-1.12,8.56,8.56,0,0,1,2.14-2.3,24.07,24.07,0,0,1,7.17-3.6,16.35,16.35,0,0,1,4.58-.56c1.32-.08,1.64-.09,1.84.06-.29-.38-.46-.47-.46,1a22.3,22.3,0,0,1-.85,5.77c-.64,2.33-1.5,4.69-2.06,6.59a3.36,3.36,0,1,0,4.17-2.27,3.36,3.36,0,0,0-4.17,2.27,14.45,14.45,0,0,0-.6,3,3.37,3.37,0,1,0,3.49-3.24,3.38,3.38,0,0,0-3.49,3.24,6.66,6.66,0,0,0,.48,2.3,3.36,3.36,0,1,0,1.41-4.54,3.36,3.36,0,0,0-1.41,4.54,6.2,6.2,0,0,0,3.13,2,3.36,3.36,0,0,0,.45-6.71,6.1,6.1,0,0,1,2.37,1.55,9.2,9.2,0,0,1,.3,1.08,5.75,5.75,0,0,1,.32-1.33c.49-1.67,1.38-4.12,2.11-6.79a31.63,31.63,0,0,0,1.08-7.61,9.4,9.4,0,0,0-3.2-6.78,11.56,11.56,0,0,0-5.05-.82,25.64,25.64,0,0,0-6.28.81,34.1,34.1,0,0,0-9.48,4.78,18.23,18.23,0,0,0-3.72,4.07,9.89,9.89,0,0,0-1.27,3.63A7.08,7.08,0,0,0,446,96a6.16,6.16,0,0,0,2.45,2.21,3.36,3.36,0,0,0,1.94-6.44" transform="translate(-264.3 43.26)"/><path class="cls-2" d="M511.6,70.51a5.94,5.94,0,0,0-.22-3.28,3.36,3.36,0,1,0-1.26,4.58,3.36,3.36,0,0,0,1.26-4.58,5.75,5.75,0,0,0-4.86-1.3,3.36,3.36,0,1,0,4.54,1.4,3.36,3.36,0,0,0-4.54-1.4,13.06,13.06,0,0,0-2.63,2.23,3.36,3.36,0,1,0,4.75-.13,3.35,3.35,0,0,0-4.75.13,87.89,87.89,0,0,0-6,7.36,98.28,98.28,0,0,0-6.95,11,14.41,14.41,0,0,0-1.45,3.36,6.59,6.59,0,0,0,.54,3.48,6.66,6.66,0,0,0,2.88,2c1.28.24,2.34.29,3.3.44a52,52,0,0,1,7.17,2.88,3.36,3.36,0,1,0-1.62-4.47,3.36,3.36,0,0,0,1.62,4.47,20,20,0,0,0,4,2A3.36,3.36,0,1,0,505,96.63a3.35,3.35,0,0,0,2.42,4.09,6.57,6.57,0,0,0,4.05-.83,3.36,3.36,0,1,0-4.74-.46,3.36,3.36,0,0,0,4.74.46,7.82,7.82,0,0,0,1.85-3.19A3.36,3.36,0,1,0,506.76,95c-.1.44.15,0,.38-.31a10.79,10.79,0,0,1,1.9-.49,23.72,23.72,0,0,1-2.6-1.5,58.46,58.46,0,0,0-8.89-3.49c-1.64-.26-2.68-.31-3.18-.41a5.4,5.4,0,0,1,1.3.94A10.4,10.4,0,0,1,496,91.4a6.57,6.57,0,0,1,.81-1.64A87.06,87.06,0,0,1,503.3,79.5a77.73,77.73,0,0,1,5.47-6.72c.7-.73,1-1,.89-.91a6.19,6.19,0,0,1-4.13-1.32,8.88,8.88,0,0,1-.34-2,3.36,3.36,0,1,0,6.41,2Z" transform="translate(-264.3 43.26)"/><path class="cls-2" d="M533.33,85.37c-.23-.07-.05,0,0,.06a3.36,3.36,0,1,0,.35,4.74,3.36,3.36,0,0,0-.35-4.74,7,7,0,0,1,.68,1.19,3.37,3.37,0,1,0-2.55,4,3.37,3.37,0,0,0,2.55-4c-.06.83-.47,1.9-.38,1.87a3.37,3.37,0,1,0-4.76,0,3.37,3.37,0,0,0,4.76,0c.09-.26.67-.46,1.85-.69a8.37,8.37,0,0,1,2.37-.14,3.36,3.36,0,1,0-3.11-3.6,3.36,3.36,0,0,0,3.11,3.6c.25,0,0-.07,0-.06a3.37,3.37,0,1,0-1-4.64,3.35,3.35,0,0,0,1,4.64c-.07-.1-.53-.69-.61-.78a3.36,3.36,0,1,0,2.11-4.26,3.36,3.36,0,0,0-2.11,4.26c.39.12-1.69,3.49-2.22,5.76a3.36,3.36,0,1,0,6.61,1.21c0-.58,2.43-4.89,2.1-8.68a7,7,0,0,0-2.27-3.19,8.51,8.51,0,0,0-3-1,18.26,18.26,0,0,0-4.26.24,12.12,12.12,0,0,0-5.33,2.58,6.68,6.68,0,0,0-1.38,4.31A6.7,6.7,0,0,0,529,90.52a8.22,8.22,0,0,0,2,1.15,3.36,3.36,0,0,0,2.35-6.3Z" transform="translate(-264.3 43.26)"/><path class="cls-2" d="M562.23,66.49c-.42.07-.39.07-.3.06a3.36,3.36,0,1,0,3,3.73,3.38,3.38,0,0,0-3-3.73,6.4,6.4,0,0,1,2.59,3A3.37,3.37,0,1,0,561.26,73a3.38,3.38,0,0,0,3.26-3.47,8,8,0,0,1-.69,2,3.36,3.36,0,1,0-4.75,0,3.34,3.34,0,0,0,4.75,0,2.16,2.16,0,0,1,.45-.33,36.55,36.55,0,0,1,6.3-3.21c2.5-1.1,4.09-1.69,3.59-1.5a6.89,6.89,0,0,1-1.73-2c0-.35.06-.78-.06-.48a26.85,26.85,0,0,0-2.17,3.13,46.62,46.62,0,0,0-2.67,5.92,3.36,3.36,0,1,0,4.3-2,3.36,3.36,0,0,0-4.3,2,28.18,28.18,0,0,0-1.26,10.22,3.36,3.36,0,1,0,3-3.69,3.37,3.37,0,0,0-3,3.69A12,12,0,0,0,572,91.6a3.36,3.36,0,1,0-1.48-4.52A3.37,3.37,0,0,0,572,91.6c2.86,1.36,7,1.76,11.46,1A3.36,3.36,0,1,0,582.3,86c-3.68.64-5.76.46-7.3-.4-1.5-.65-1.84-1.21-2-3.15a18.21,18.21,0,0,1,1-7.28,37.4,37.4,0,0,1,2.13-4.71c.75-1.21,1.64-2.43,2.32-3.48a7.66,7.66,0,0,0,.69-3.7,6.3,6.3,0,0,0-2.81-3.19c-2.47-.46-5.6.53-8.3,1.7a46.79,46.79,0,0,0-7.47,3.86,11.58,11.58,0,0,0-1.36,1.09,6,6,0,0,0-1.33,3,5.89,5.89,0,0,0,3.36,3.47,9.3,9.3,0,0,0,2.15-.1,3.36,3.36,0,1,0-1.07-6.64Z" transform="translate(-264.3 43.26)"/><path class="cls-2" d="M607,61c-.24.05,0,.05.29.06a3.36,3.36,0,1,0,2.65,4,3.37,3.37,0,0,0-2.65-4,6,6,0,0,1,1.29.64A3.36,3.36,0,1,0,609,66.4a3.36,3.36,0,0,0-.41-4.73,6,6,0,0,1,1.1,2.1,3.36,3.36,0,1,0-3,3.66,3.36,3.36,0,0,0,3-3.66,6.92,6.92,0,0,1-.49,1.9s-.07.06.1-.07a13,13,0,0,1,3.8-2,32,32,0,0,1,7.53-1.7,3.36,3.36,0,1,0-3.68-3,3.37,3.37,0,0,0,3.68,3,10.38,10.38,0,0,1,2.52,0,3.36,3.36,0,1,0-2.86-3.8,3.36,3.36,0,0,0,2.86,3.8c.23,0,0,0-.1-.07a3.37,3.37,0,1,0-1.37-4.56A3.38,3.38,0,0,0,623,61.82a6.49,6.49,0,0,1-1.3-2,3.36,3.36,0,1,0,6.65-1,6.32,6.32,0,0,0-2.16-3,8.68,8.68,0,0,0-2.15-.66,19.7,19.7,0,0,0-4.13,0,41.69,41.69,0,0,0-9.21,2.09,22.21,22.21,0,0,0-5.76,3.1,8.62,8.62,0,0,0-1.09,1.09,6.11,6.11,0,0,0-.91,2.85,6,6,0,0,0,1.27,2.43,5.88,5.88,0,0,0,1.74.82,7.79,7.79,0,0,0,2.16,0A3.36,3.36,0,1,0,607,61" transform="translate(-264.3 43.26)"/><path class="cls-2" d="M608.64,68a11.85,11.85,0,0,0-.88,1.16,3.36,3.36,0,1,0,4.63-1.08,3.36,3.36,0,0,0-4.63,1.08,6,6,0,0,0-.53,3.08,3.37,3.37,0,1,0,2.35-4.14,3.37,3.37,0,0,0-2.35,4.14,6.09,6.09,0,0,0,2.21,2.36,3.36,3.36,0,1,0-2.05-4.3,3.36,3.36,0,0,0,2.05,4.3,6.23,6.23,0,0,0,1.62.19,3.36,3.36,0,1,0-3.66-3,3.37,3.37,0,0,0,3.66,3,9.07,9.07,0,0,0,1.47-.35,3.37,3.37,0,1,0-4.3-2.06,3.36,3.36,0,0,0,4.3,2.06c3.43-1,14.74-5.79,18.07-7.45a3.36,3.36,0,0,0-3-6c-3.05,1.52-14.08,6.24-17.08,7-.4.14-.26.11-.08.07a6.72,6.72,0,0,1,1.26.17,6.17,6.17,0,0,1,2,2.19,6.49,6.49,0,0,1-.25,2.26l.27-.33a3.36,3.36,0,0,0-5.1-4.38Z" transform="translate(-264.3 43.26)"/><path class="cls-2" d="M617.86,56.81a54.44,54.44,0,0,0-.56,5.88,3.37,3.37,0,1,0,3.54-3.17,3.37,3.37,0,0,0-3.54,3.17c0,1.4-.09,2.87-.16,4.46a3.36,3.36,0,1,0,3.52-3.2,3.36,3.36,0,0,0-3.52,3.2,69.71,69.71,0,0,1-.89,8.66,3.36,3.36,0,1,0,3.9-2.71,3.37,3.37,0,0,0-3.9,2.71,41,41,0,0,1-2.9,8.6,8.4,8.4,0,0,1-1.06,2c-.15.21.39-.05.63-.16.69.18,1.31.56,1.27.45s-.14-.15-.25-.54a3.37,3.37,0,1,0-2.2,4.22,3.37,3.37,0,0,0,2.2-4.22c-.29-.78-.35-1-.21-1.34a3.36,3.36,0,1,0-4,2.57,3.38,3.38,0,0,0,4-2.57c-.11-.09-.42.27.61-.15a3.36,3.36,0,1,0-4.44-1.69,3.37,3.37,0,0,0,4.44,1.69c4.38-1.95,16-3.78,21.81-5.81a3.37,3.37,0,0,0-2.24-6.35c-5,1.81-16.77,3.67-22.28,6a8.85,8.85,0,0,0-4.45,4.78,10.76,10.76,0,0,0,.38,5,10.16,10.16,0,0,0,1.37,2.62,7.29,7.29,0,0,0,3.38,2,7.83,7.83,0,0,0,5.12-2.2,17.43,17.43,0,0,0,2-3.46,51.29,51.29,0,0,0,3.38-10.11,77.61,77.61,0,0,0,1-9.66c.08-1.66.12-3.17.16-4.47a43.41,43.41,0,0,1,.45-4.93,3.36,3.36,0,0,0-6.61-1.26" transform="translate(-264.3 43.26)"/><path class="cls-2" d="M654.34,59,653,58.71a3.37,3.37,0,1,0,1,4.64,3.38,3.38,0,0,0-1-4.64,6.78,6.78,0,0,1,.83.85,3.37,3.37,0,1,0-1,4.64,3.37,3.37,0,0,0,1-4.64,6.06,6.06,0,0,1,.42,2.23,3.36,3.36,0,1,0-3.93,2.68,3.36,3.36,0,0,0,3.93-2.68,8.19,8.19,0,0,1-.94,1.65,23,23,0,0,1,4.7-2.18c3.77-1.45,9-2.82,12.38-3.71a3.36,3.36,0,1,0-4.11-2.39,3.36,3.36,0,0,0,4.11,2.39,20.69,20.69,0,0,0,4-1.3,3.36,3.36,0,1,0-4.64-1,3.36,3.36,0,0,0,4.64,1c1.27-4.45-2-6.27-2.56-6.23a3.37,3.37,0,1,0,3.63,3.08A3.37,3.37,0,0,0,671.77,50c-.51,0-1.32.14-2.42.29a3.37,3.37,0,0,0,.91,6.67c1.06-.15,1.71-.22,2.06-.25a6.17,6.17,0,0,1-1.61-6.15c.58-.24-.4,0-2.07.47-3.34.88-8.9,2.34-13.09,3.94a30.84,30.84,0,0,0-6.3,3.06,6.34,6.34,0,0,0-1.64,2.49,6.12,6.12,0,0,0,.51,2.63,6.41,6.41,0,0,0,1.24,1.22A13,13,0,0,0,653,65.58a3.37,3.37,0,0,0,1.33-6.6" transform="translate(-264.3 43.26)"/><path class="cls-2" d="M661.58,51.91c0,1.22,0,2.37,0,4.3a3.37,3.37,0,1,0,3.37-3.36,3.37,3.37,0,0,0-3.37,3.36,54.35,54.35,0,0,1,0,6.65,3.36,3.36,0,1,0,3.58-3.13,3.37,3.37,0,0,0-3.58,3.13,47.5,47.5,0,0,1-.68,4.89,3.36,3.36,0,1,0,3.93-2.67,3.35,3.35,0,0,0-3.93,2.67,73.64,73.64,0,0,1-2,7.41c-.76,2.34-1.53,4.35-2.18,5.85a12.24,12.24,0,0,1-.8,1.86c0,.1.13-.13.3-.31a6.09,6.09,0,0,1,2.92-.54c1.56,1.48,1.4.58,1.22-1.24-.07-1-.11-2.25-.11-3.47-.12-2.9-.17-4.12.2-4.16-.08,0-.45.24-.23.22A1.89,1.89,0,0,1,662,73.3a5.52,5.52,0,0,1,2.25,2,14.41,14.41,0,0,1,2.27,4.65,28.19,28.19,0,0,1,.72,4.51,35,35,0,0,1-.4,8,3.37,3.37,0,1,0,3.8-2.87,3.38,3.38,0,0,0-3.8,2.87c-.15,1.1-.3,2.1-.35,2.92A3.37,3.37,0,1,0,670,92.16a3.37,3.37,0,0,0-3.55,3.17,7.62,7.62,0,0,0,.14,1.77A3.36,3.36,0,1,0,669,93a3.34,3.34,0,0,0-2.41,4.1,6,6,0,0,0,3.14,2.78,3.36,3.36,0,0,0,.74-6.68,6.24,6.24,0,0,1,2.63,2.22c0,.25,0,.47.07.29,0-.44.14-1.24.3-2.38a44.85,44.85,0,0,0,.43-9.44,37.21,37.21,0,0,0-.95-5.81,24.11,24.11,0,0,0-3.42-6.91A15,15,0,0,0,664.27,67a10.82,10.82,0,0,0-5.86-.09,8.07,8.07,0,0,0-3,1.77c-1.74,2.41-2,5.74-1.91,8.8,0,1.17.05,2.61.14,3.89a12.08,12.08,0,0,0,2.19,6.37,5.48,5.48,0,0,0,4.79-.1,7.3,7.3,0,0,0,1.1-1.38,20.17,20.17,0,0,0,1.21-2.7c.66-1.52,1.54-3.81,2.36-6.33a82.6,82.6,0,0,0,2.17-8.16,56.77,56.77,0,0,0,.8-5.7,65.68,65.68,0,0,0,0-7.3c0-1.77,0-2.92,0-4.14a3.37,3.37,0,1,0-6.73,0Z" transform="translate(-264.3 43.26)"/></g></g></svg>